<svg width="85" height="58" viewBox="0 0 85 58" fill="none" xmlns="http://www.w3.org/2000/svg">
<path d="M84.5827 34.8981V13.9578C84.5827 6.24902 78.4816 0 70.9552 0H70.2461V16.4008C68.2301 15.7342 66.0802 15.3719 63.8462 15.3719C58.9402 15.3719 54.4326 17.1114 50.8746 20.0204L41.0954 27.6554V13.9578C41.0971 6.24902 34.996 0 27.4696 0H26.7604V16.2584C24.8749 15.6832 22.8779 15.3719 20.8087 15.3719C9.31737 15.3719 0 24.9152 0 36.6868C0 48.4585 9.31737 58 20.8087 58C24.8904 58 28.6974 56.7952 31.9102 54.7163C34.2404 56.6176 37.1888 57.7555 40.3982 57.7555H41.0954V46.2459L44.2258 43.8012C47.0848 52.0728 54.7898 58 63.8462 58C68.0326 58 71.9306 56.7319 75.1949 54.5528C77.5543 56.5525 80.5817 57.7555 83.8838 57.7555H84.581V38.4755C84.6291 37.8863 84.6548 37.2884 84.6548 36.6868C84.6548 36.0853 84.6291 35.4873 84.581 34.8981H84.5827ZM29.4907 39.8879C26.0083 42.2605 24.1314 42.767 23.6145 42.8972C23.1561 43.0133 22.7182 43.0959 22.2992 43.1522C21.839 43.2595 21.3616 43.3175 20.8705 43.3175C20.1407 43.3175 19.4401 43.1909 18.7841 42.9622C18.7653 42.957 18.7446 42.9517 18.7258 42.9464H18.7309C16.2187 42.0406 14.4174 39.5906 14.4174 36.7097C14.4174 33.0602 17.3057 30.1019 20.8688 30.1019C24.4319 30.1019 27.3202 33.0602 27.3202 36.7097C27.3202 37.8652 27.03 38.9504 26.5217 39.8967C27.1983 39.624 27.9727 39.216 28.9996 38.7183C32.8186 36.8662 37.8928 31.5283 37.9959 31.6655C38.1092 31.8167 32.7259 37.6806 29.489 39.8879H29.4907ZM63.7946 43.3158C60.2315 43.3158 57.3432 40.3575 57.3432 36.708C57.3432 35.5524 57.6334 34.4672 58.1417 33.521C57.4651 33.7936 56.6907 34.2017 55.6638 34.6994C51.8448 36.5514 49.7276 38.3472 49.6245 38.21C49.5112 38.0587 51.9359 35.7353 55.1744 33.528C58.6569 31.1554 60.5337 30.6489 61.0506 30.5187C61.5091 30.4026 61.947 30.32 62.366 30.2637C62.8262 30.1564 63.3035 30.0984 63.7946 30.0984C64.5244 30.0984 65.225 30.225 65.881 30.4536C65.8999 30.4589 65.9205 30.4642 65.9394 30.4695H65.9342C68.4465 31.3753 70.2478 33.8253 70.2478 36.7062C70.2478 40.3557 67.3595 43.314 63.7964 43.314L63.7946 43.3158Z" fill="white"/>
</svg>
